<svg width="1440" height="764" viewBox="0 0 1440 764" fill="none" xmlns="http://www.w3.org/2000/svg">
<g clip-path="url(#clip0_6023_5874)">
<rect width="1440" height="764" fill="#F6FBFF"/>
<g opacity="0.7">
<path fill-rule="evenodd" clip-rule="evenodd" d="M1308.13 158.506C1310.42 161.35 1311.2 165.254 1309.95 168.904C1306.55 178.807 1300.27 197.079 1296.86 206.982C1295.06 212.216 1289.64 215.279 1284.22 214.116C1284.22 214.116 1284.22 214.114 1284.21 214.113C1263.57 209.573 1243.8 202.772 1224.9 193.712C1224.9 193.71 1224.89 193.708 1224.89 193.706C1219.91 191.294 1217.53 185.549 1219.32 180.323C1222.72 170.421 1229.01 152.149 1232.41 142.244C1233.67 138.596 1236.68 136.002 1240.23 135.16C1240.25 135.156 1240.27 135.151 1240.29 135.147C1240.29 135.147 1264.28 130 1274.79 127.745C1278.75 126.893 1282.86 128.307 1285.46 131.417L1308.09 158.457C1308.09 158.457 1308.11 158.482 1308.13 158.506Z" fill="#154D7E"/>
<path fill-rule="evenodd" clip-rule="evenodd" d="M1297.11 168.444L1263.75 177.198L1242.83 149.775L1249.94 129.093C1251.91 123.383 1258.12 120.345 1263.84 122.31C1271.84 125.061 1289.44 131.115 1297.44 133.866C1303.15 135.831 1306.19 142.051 1304.22 147.761L1297.11 168.444Z" fill="#E7EEFF"/>
</g>
<g opacity="0.49">
<path fill-rule="evenodd" clip-rule="evenodd" d="M1347.37 241.972C1347.75 243.408 1347.4 244.99 1346.33 246.141C1343.43 249.267 1338.07 255.03 1335.17 258.154C1333.64 259.805 1331.11 260.05 1329.29 258.724C1329.29 258.724 1329.29 258.722 1329.29 258.721C1322.36 253.626 1316.12 247.833 1310.58 241.342C1310.58 241.34 1310.58 241.339 1310.57 241.337C1309.12 239.619 1309.18 237.087 1310.71 235.439C1313.61 232.314 1318.96 226.55 1321.87 223.426C1322.94 222.275 1324.49 221.807 1325.95 222.079C1325.95 222.081 1325.96 222.082 1325.97 222.084C1325.97 222.084 1335.75 224.126 1340.03 225.021C1341.65 225.358 1342.94 226.562 1343.4 228.15L1347.36 241.947C1347.36 241.947 1347.36 241.96 1347.37 241.972Z" fill="#154D7E"/>
<path fill-rule="evenodd" clip-rule="evenodd" d="M1341.62 243.848L1327.76 241.602L1324.5 227.944L1330.56 221.42C1332.23 219.619 1335.05 219.514 1336.85 221.188C1339.37 223.532 1344.93 228.689 1347.45 231.033C1349.25 232.707 1349.35 235.523 1347.68 237.324L1341.62 243.848Z" fill="#E7EEFF"/>
</g>
<g opacity="0.25">
<path fill-rule="evenodd" clip-rule="evenodd" d="M1232.04 295.58C1232.83 296.838 1232.96 298.454 1232.28 299.87C1230.43 303.713 1227.02 310.802 1225.18 314.645C1224.2 316.676 1221.86 317.656 1219.73 316.929C1219.73 316.928 1219.72 316.928 1219.72 316.927C1211.59 314.11 1203.92 310.421 1196.71 305.859C1196.71 305.858 1196.71 305.857 1196.7 305.856C1194.81 304.645 1194.12 302.209 1195.09 300.181C1196.94 296.338 1200.34 289.249 1202.19 285.406C1202.87 283.991 1204.22 283.085 1205.69 282.913C1205.7 282.912 1205.71 282.911 1205.71 282.911C1205.71 282.911 1215.66 281.97 1220.01 281.557C1221.66 281.401 1223.25 282.168 1224.16 283.55L1232.02 295.558C1232.02 295.558 1232.03 295.569 1232.04 295.58Z" fill="#154D7E"/>
<path fill-rule="evenodd" clip-rule="evenodd" d="M1227.11 299.071L1213.2 301.026L1206.05 288.943L1209.91 280.919C1210.97 278.704 1213.63 277.771 1215.85 278.837C1218.95 280.329 1225.78 283.613 1228.88 285.106C1231.1 286.172 1232.03 288.831 1230.97 291.047L1227.11 299.071Z" fill="#E7EEFF"/>
</g>
<g opacity="0.25">
<path fill-rule="evenodd" clip-rule="evenodd" d="M1132.04 275.58C1132.82 276.838 1132.96 278.454 1132.27 279.87C1130.43 283.713 1127.02 290.802 1125.17 294.645C1124.2 296.676 1121.86 297.656 1119.72 296.929C1119.72 296.928 1119.72 296.928 1119.72 296.927C1111.59 294.11 1103.92 290.421 1096.71 285.859C1096.71 285.858 1096.7 285.857 1096.7 285.856C1094.81 284.645 1094.11 282.209 1095.09 280.181C1096.93 276.338 1100.34 269.249 1102.19 265.406C1102.87 263.991 1104.21 263.085 1105.69 262.913C1105.7 262.912 1105.7 262.911 1105.71 262.911C1105.71 262.911 1115.66 261.97 1120.01 261.557C1121.66 261.401 1123.25 262.168 1124.16 263.55L1132.02 275.558C1132.02 275.558 1132.03 275.569 1132.04 275.58Z" fill="#154D7E"/>
<path fill-rule="evenodd" clip-rule="evenodd" d="M1127.1 279.071L1113.2 281.026L1106.04 268.943L1109.9 260.919C1110.97 258.704 1113.63 257.771 1115.84 258.837C1118.95 260.329 1125.78 263.613 1128.88 265.106C1131.1 266.172 1132.03 268.831 1130.96 271.047L1127.1 279.071Z" fill="#E7EEFF"/>
</g>
<g opacity="0.25">
<path fill-rule="evenodd" clip-rule="evenodd" d="M1321.9 88.7758C1322.11 90.2455 1321.58 91.7775 1320.39 92.7987C1317.15 95.5714 1311.17 100.684 1307.93 103.455C1306.22 104.919 1303.68 104.873 1302.02 103.347C1302.02 103.346 1302.02 103.345 1302.02 103.344C1295.72 97.4882 1290.19 91.0188 1285.43 83.9355C1285.42 83.9338 1285.42 83.9322 1285.42 83.9309C1284.18 82.0577 1284.53 79.5491 1286.24 78.0868C1289.47 75.3144 1295.45 70.2021 1298.69 67.4308C1299.89 66.41 1301.48 66.1229 1302.9 66.56C1302.91 66.5626 1302.91 66.5647 1302.92 66.5673C1302.92 66.5673 1312.4 69.7165 1316.55 71.096C1318.12 71.6162 1319.27 72.9609 1319.54 74.5898L1321.9 88.7507C1321.9 88.7507 1321.9 88.7635 1321.9 88.7758Z" fill="#154D7E"/>
<path fill-rule="evenodd" clip-rule="evenodd" d="M1315.98 89.9846L1302.47 86.1653L1300.79 72.2236L1307.56 66.4369C1309.43 64.8394 1312.24 65.058 1313.83 66.9271C1316.07 69.5446 1321 75.3042 1323.24 77.9217C1324.83 79.7908 1324.61 82.5999 1322.75 84.1975L1315.98 89.9846Z" fill="#E7EEFF"/>
<g opacity="0.25">
<path fill-rule="evenodd" clip-rule="evenodd" d="M1420.9 99.0086C1421.42 100.397 1421.24 102.008 1420.29 103.263C1417.73 106.671 1413 112.957 1410.44 116.364C1409.08 118.165 1406.6 118.669 1404.65 117.539C1404.65 117.538 1404.65 117.537 1404.64 117.536C1397.22 113.185 1390.42 108.067 1384.24 102.183C1384.24 102.181 1384.24 102.18 1384.24 102.179C1382.61 100.62 1382.41 98.0955 1383.76 96.2975C1386.32 92.8898 1391.05 86.604 1393.62 83.1965C1394.56 81.9414 1396.05 81.3158 1397.53 81.4355C1397.54 81.4362 1397.55 81.4367 1397.56 81.4376C1397.56 81.4376 1407.49 82.4589 1411.85 82.9063C1413.49 83.0748 1414.9 84.1385 1415.52 85.6701L1420.89 98.9848C1420.89 98.9848 1420.89 98.9969 1420.9 99.0086Z" fill="#154D7E"/>
<path fill-rule="evenodd" clip-rule="evenodd" d="M1415.38 101.469L1401.36 100.667L1396.7 87.4191L1402.06 80.3041C1403.53 78.3398 1406.32 77.9448 1408.29 79.4233C1411.04 81.494 1417.1 86.0501 1419.85 88.1208C1421.81 89.5993 1422.21 92.3895 1420.73 94.3537L1415.38 101.469Z" fill="#E7EEFF"/>
</g>
</g>
<g opacity="0.51">
<path fill-rule="evenodd" clip-rule="evenodd" d="M1195.34 201.496C1196.53 202.38 1197.25 203.835 1197.13 205.402C1196.82 209.654 1196.24 217.498 1195.93 221.75C1195.76 223.998 1193.94 225.765 1191.69 225.868C1191.69 225.869 1191.69 225.869 1191.68 225.868C1183.09 226.219 1174.6 225.59 1166.22 223.982C1166.22 223.981 1166.21 223.981 1166.21 223.981C1164 223.546 1162.47 221.531 1162.64 219.288C1162.95 215.037 1163.53 207.192 1163.84 202.939C1163.96 201.373 1164.88 200.039 1166.19 199.34C1166.19 199.336 1166.2 199.333 1166.21 199.329C1166.21 199.329 1175.12 194.817 1179.02 192.841C1180.5 192.095 1182.26 192.225 1183.61 193.18L1195.32 201.481C1195.32 201.481 1195.33 201.489 1195.34 201.496Z" fill="#154D7E"/>
<path fill-rule="evenodd" clip-rule="evenodd" d="M1192.03 206.55L1179.8 213.453L1168.72 204.823L1169.38 195.943C1169.56 193.492 1171.7 191.651 1174.15 191.833C1177.58 192.088 1185.14 192.647 1188.58 192.902C1191.03 193.083 1192.87 195.218 1192.69 197.669L1192.03 206.55Z" fill="#E7EEFF"/>
</g>
<g opacity="0.7" clip-path="url(#clip1_6023_5874)">
<path d="M234.137 99.877L287.2 76.519C293.263 73.8498 300.364 76.6119 303.033 82.6734L318.519 117.853C321.187 123.915 318.428 131.017 312.364 133.686L305.768 136.59L308.672 143.186C309.029 143.998 308.91 144.94 308.366 145.636C307.822 146.327 306.943 146.673 306.059 146.52L289.711 143.658L259.301 157.044C253.237 159.714 246.136 156.952 243.468 150.89L227.982 115.71C225.314 109.649 228.073 102.546 234.137 99.877Z" fill="#218DE6"/>
<path d="M247.329 130.818L300.392 107.46C301.607 106.925 303.024 107.476 303.558 108.691C304.093 109.906 303.543 111.323 302.328 111.858L249.265 135.216C248.049 135.751 246.633 135.2 246.098 133.985C245.563 132.769 246.113 131.353 247.329 130.818ZM251.2 139.613L304.263 116.255C305.479 115.72 306.895 116.271 307.43 117.486C307.965 118.701 307.414 120.118 306.199 120.653L253.136 144.011C251.921 144.546 250.504 143.995 249.969 142.78C249.434 141.564 249.985 140.148 251.2 139.613ZM298.456 103.063L245.393 126.421C244.178 126.956 242.761 126.405 242.226 125.19C241.691 123.974 242.242 122.558 243.457 122.023L296.52 98.6652C297.736 98.1302 299.152 98.6808 299.687 99.8961C300.222 101.111 299.671 102.528 298.456 103.063ZM294.585 94.2677L272.597 103.946C271.382 104.481 269.966 103.931 269.431 102.716C268.896 101.5 269.446 100.084 270.661 99.5489L292.649 89.8702C293.864 89.3352 295.281 89.8858 295.816 91.1011C296.351 92.3164 295.8 93.7327 294.585 94.2677Z" fill="#E7EEFF"/>
</g>
<g opacity="0.31" clip-path="url(#clip2_6023_5874)">
<path d="M153.597 27.0676L177.739 19.8151C180.497 18.9863 183.414 20.5565 184.243 23.3142L189.051 39.3196C189.88 42.0774 188.311 44.9951 185.552 45.8238L182.551 46.7254L183.453 49.7264C183.564 50.0957 183.462 50.4957 183.19 50.767C182.919 51.0365 182.521 51.1389 182.147 51.026L175.246 48.92L161.411 53.0764C158.652 53.9051 155.735 52.3351 154.906 49.5773L150.098 33.5719C149.27 30.8142 150.838 27.8964 153.597 27.0676Z" fill="#218DE6"/>
<path d="M157.641 41.1221L181.783 33.8696C182.336 33.7035 182.917 34.0165 183.084 34.5694C183.25 35.1224 182.937 35.7042 182.384 35.8703L158.242 43.1228C157.689 43.2889 157.108 42.9759 156.941 42.423C156.775 41.8701 157.088 41.2882 157.641 41.1221ZM158.843 45.1235L182.985 37.871C183.538 37.7049 184.12 38.0179 184.286 38.5708C184.452 39.1237 184.139 39.7055 183.586 39.8716L159.444 47.1242C158.891 47.2903 158.31 46.9773 158.144 46.4243C157.977 45.8714 158.29 45.2896 158.843 45.1235ZM181.182 31.8689L157.04 39.1215C156.487 39.2876 155.905 38.9746 155.739 38.4216C155.573 37.8687 155.886 37.2869 156.439 37.1208L180.581 29.8683C181.134 29.7022 181.715 30.0152 181.882 30.5681C182.048 31.121 181.735 31.7028 181.182 31.8689ZM179.98 27.8676L169.976 30.8728C169.423 31.0389 168.841 30.7259 168.675 30.173C168.509 29.62 168.822 29.0382 169.375 28.8721L179.379 25.8669C179.931 25.7008 180.513 26.0138 180.679 26.5667C180.846 27.1197 180.533 27.7015 179.98 27.8676Z" fill="#E7EEFF"/>
</g>
<g opacity="0.31" clip-path="url(#clip3_6023_5874)">
<path d="M304.869 22.2413L329.719 18.0096C332.558 17.526 335.261 19.4426 335.744 22.2812L338.549 38.7561C339.033 41.5947 337.117 44.2976 334.278 44.7812L331.189 45.3072L331.715 48.3963C331.78 48.7764 331.63 49.1609 331.326 49.3968C331.024 49.6308 330.617 49.6836 330.26 49.5256L323.669 46.5878L309.428 49.0129C306.589 49.4965 303.887 47.58 303.403 44.7413L300.598 28.2664C300.114 25.4278 302.03 22.7249 304.869 22.2413Z" fill="#218DE6"/>
<path d="M307.156 36.6836L332.006 32.4518C332.575 32.3549 333.114 32.737 333.211 33.3062C333.308 33.8753 332.926 34.4143 332.357 34.5112L307.507 38.7429C306.938 38.8398 306.399 38.4577 306.302 37.8886C306.205 37.3195 306.587 36.7805 307.156 36.6836ZM307.858 40.8023L332.707 36.5706C333.276 36.4736 333.815 36.8557 333.912 37.4249C334.009 37.994 333.627 38.533 333.058 38.6299L308.208 42.8616C307.639 42.9586 307.1 42.5764 307.003 42.0073C306.906 41.4382 307.289 40.8992 307.858 40.8023ZM331.655 30.3925L306.806 34.6242C306.237 34.7211 305.698 34.339 305.601 33.7699C305.504 33.2007 305.886 32.6618 306.455 32.5649L331.305 28.3331C331.874 28.2362 332.413 28.6183 332.51 29.1875C332.606 29.7566 332.224 30.2956 331.655 30.3925ZM330.954 26.2738L320.657 28.0272C320.088 28.1242 319.549 27.7421 319.452 27.1729C319.355 26.6038 319.737 26.0648 320.306 25.9679L330.603 24.2144C331.172 24.1175 331.711 24.4996 331.808 25.0687C331.905 25.6379 331.523 26.1768 330.954 26.2738Z" fill="#E7EEFF"/>
</g>
<g opacity="0.31" clip-path="url(#clip4_6023_5874)">
<path d="M163.457 120.68L186.351 110.131C188.967 108.925 192.074 110.073 193.279 112.688L200.273 127.867C201.479 130.482 200.332 133.59 197.716 134.795L194.87 136.107L196.181 138.953C196.343 139.303 196.298 139.713 196.067 140.02C195.835 140.324 195.456 140.481 195.07 140.422L187.942 139.299L174.822 145.345C172.206 146.55 169.099 145.403 167.893 142.787L160.899 127.609C159.694 124.994 160.841 121.886 163.457 120.68Z" fill="#218DE6"/>
<path d="M169.422 134.033L192.316 123.483C192.84 123.242 193.46 123.47 193.702 123.995C193.943 124.519 193.715 125.139 193.19 125.38L170.297 135.93C169.772 136.171 169.152 135.943 168.911 135.418C168.669 134.894 168.898 134.274 169.422 134.033ZM171.171 137.827L194.064 127.278C194.589 127.036 195.209 127.265 195.45 127.789C195.692 128.314 195.463 128.933 194.939 129.175L172.045 139.724C171.521 139.966 170.901 139.737 170.659 139.213C170.418 138.689 170.647 138.069 171.171 137.827ZM191.442 121.586L168.548 132.135C168.024 132.377 167.404 132.148 167.162 131.624C166.921 131.099 167.149 130.48 167.674 130.238L190.567 119.689C191.092 119.447 191.712 119.676 191.953 120.2C192.195 120.725 191.966 121.344 191.442 121.586ZM189.693 117.791L180.207 122.163C179.683 122.404 179.063 122.176 178.821 121.651C178.58 121.127 178.808 120.507 179.333 120.265L188.819 115.894C189.343 115.653 189.963 115.881 190.205 116.406C190.446 116.93 190.218 117.55 189.693 117.791Z" fill="#E7EEFF"/>
</g>
<g opacity="0.31" clip-path="url(#clip5_6023_5874)">
<path d="M273.457 230.68L296.351 220.131C298.967 218.925 302.074 220.073 303.279 222.688L310.273 237.867C311.479 240.482 310.332 243.59 307.716 244.795L304.87 246.107L306.181 248.953C306.343 249.303 306.298 249.713 306.067 250.02C305.835 250.324 305.456 250.481 305.07 250.422L297.942 249.299L284.822 255.345C282.206 256.55 279.099 255.403 277.893 252.787L270.899 237.609C269.694 234.994 270.841 231.886 273.457 230.68Z" fill="#218DE6"/>
<path d="M279.422 244.033L302.316 233.483C302.84 233.242 303.46 233.47 303.702 233.995C303.943 234.519 303.715 235.139 303.19 235.38L280.297 245.93C279.772 246.171 279.152 245.943 278.911 245.418C278.669 244.894 278.898 244.274 279.422 244.033ZM281.171 247.827L304.064 237.278C304.589 237.036 305.209 237.265 305.45 237.789C305.692 238.314 305.463 238.933 304.939 239.175L282.045 249.724C281.521 249.966 280.901 249.737 280.659 249.213C280.418 248.689 280.647 248.069 281.171 247.827ZM301.442 231.586L278.548 242.135C278.024 242.377 277.404 242.148 277.162 241.624C276.921 241.099 277.149 240.48 277.674 240.238L300.567 229.689C301.092 229.447 301.712 229.676 301.953 230.2C302.195 230.725 301.966 231.344 301.442 231.586ZM299.693 227.791L290.207 232.163C289.683 232.404 289.063 232.176 288.821 231.651C288.58 231.127 288.808 230.507 289.333 230.265L298.819 225.894C299.343 225.653 299.963 225.881 300.205 226.406C300.446 226.93 300.218 227.55 299.693 227.791Z" fill="#E7EEFF"/>
</g>
<g opacity="0.7" clip-path="url(#clip6_6023_5874)">
<path fill-rule="evenodd" clip-rule="evenodd" d="M167.605 282.556L143.479 309.554L110.066 295.602L104.757 272.192C103.292 265.729 107.008 259.377 113.063 258.004C121.543 256.081 140.203 251.85 148.683 249.927C154.738 248.554 160.831 252.681 162.296 259.144L167.605 282.556Z" fill="white"/>
<path fill-rule="evenodd" clip-rule="evenodd" d="M148.84 240.66C155.861 239.068 162.558 242.209 163.794 247.662L176.119 302.011C177.356 307.464 172.669 313.186 165.647 314.778L152.919 317.665C150.302 318.258 147.76 317.08 147.299 315.048C146.832 312.986 144.346 311.813 141.692 312.415C139.038 313.017 137.299 315.148 137.767 317.209C138.228 319.242 136.445 321.401 133.829 321.994L121.113 324.878C114.091 326.47 107.382 323.332 106.145 317.878L93.8209 263.53C92.5842 258.077 97.2836 252.352 104.305 250.759L117.021 247.876C119.638 247.282 122.177 248.464 122.638 250.496C123.106 252.557 125.593 253.727 128.247 253.125C130.901 252.524 132.638 250.396 132.171 248.334C131.71 246.302 133.495 244.14 136.111 243.547L148.84 240.66ZM113.98 271.29C113.346 271.433 112.782 271.768 112.414 272.218C111.648 273.152 111.914 274.323 113.008 274.836L154.161 294.08C155.256 294.591 156.764 294.249 157.531 293.316C158.302 292.38 158.036 291.203 156.936 290.691L115.794 271.452C115.267 271.204 114.614 271.146 113.98 271.29ZM142.737 265.423C138.365 266.414 135.42 270.008 136.19 273.404C136.96 276.8 141.167 278.767 145.538 277.776C149.91 276.785 152.863 273.194 152.093 269.798C151.323 266.402 147.109 264.432 142.737 265.423ZM124.398 287.765C122.289 288.243 120.414 289.353 119.185 290.849C117.957 292.346 117.475 294.107 117.847 295.745C118.031 296.556 118.419 297.313 118.988 297.971C119.558 298.63 120.298 299.178 121.166 299.584C122.035 299.99 123.014 300.247 124.05 300.338C125.085 300.43 126.155 300.355 127.199 300.118C128.243 299.881 129.241 299.487 130.135 298.958C131.03 298.429 131.803 297.775 132.411 297.034C133.02 296.293 133.451 295.48 133.681 294.64C133.91 293.8 133.934 292.95 133.75 292.139C133.379 290.501 132.185 289.119 130.431 288.299C128.677 287.479 126.507 287.287 124.398 287.765Z" fill="#F4940D"/>
</g>
<g opacity="0.3" clip-path="url(#clip7_6023_5874)">
<path fill-rule="evenodd" clip-rule="evenodd" d="M74.1223 377.344L68.0525 389.635L54.4512 387.927L50.1456 379.923C48.9569 377.714 49.6699 375.02 51.74 373.907C54.6391 372.347 61.0181 368.915 63.9172 367.356C65.9874 366.242 68.6278 367.131 69.8165 369.341L74.1223 377.344Z" fill="white"/>
<path fill-rule="evenodd" clip-rule="evenodd" d="M63.0366 363.959C65.437 362.668 68.1978 363.136 69.2008 365L79.1966 383.581C80.1997 385.445 79.0689 388.007 76.6685 389.298L72.3169 391.639C71.4225 392.12 70.3757 391.948 70.002 391.253C69.6229 390.548 68.5975 390.372 67.6901 390.86C66.7828 391.348 66.364 392.302 66.7431 393.006C67.1169 393.701 66.6851 394.669 65.7907 395.15L61.4434 397.489C59.043 398.78 56.2778 398.314 55.2748 396.45L45.279 377.87C44.276 376.006 45.4111 373.442 47.8115 372.15L52.1588 369.811C53.0533 369.33 54.0994 369.504 54.4731 370.199C54.8522 370.904 55.8782 371.079 56.7855 370.591C57.6928 370.102 58.1111 369.15 57.732 368.446C57.3582 367.751 57.7906 366.782 58.6851 366.3L63.0366 363.959ZM53.4186 378.661C53.2018 378.778 53.03 378.956 52.9412 379.158C52.7565 379.576 52.9719 379.977 53.4227 380.053L70.3835 382.909C70.8346 382.985 71.3501 382.708 71.5356 382.29C71.7223 381.87 71.5059 381.468 71.0528 381.392L54.0966 378.537C53.8795 378.5 53.6354 378.544 53.4186 378.661ZM63.316 373.611C61.8215 374.415 61.1106 376.024 61.7352 377.185C62.3598 378.346 64.0935 378.638 65.588 377.834C67.0825 377.03 67.7965 375.421 67.172 374.26C66.5474 373.099 64.8106 372.807 63.316 373.611ZM58.8864 383.617C58.1655 384.005 57.5937 384.6 57.2969 385.27C57.0002 385.94 57.0027 386.631 57.304 387.191C57.4532 387.469 57.6712 387.705 57.9457 387.888C58.2201 388.071 58.5456 388.196 58.9035 388.256C59.2614 388.316 59.6447 388.311 60.0316 388.239C60.4185 388.168 60.8014 388.033 61.1584 387.84C61.5154 387.648 61.8395 387.404 62.1122 387.12C62.3849 386.837 62.6009 386.52 62.7479 386.188C62.8948 385.856 62.9698 385.516 62.9686 385.186C62.9674 384.856 62.89 384.544 62.7408 384.266C62.4395 383.706 61.8642 383.323 61.1413 383.202C60.4185 383.08 59.6074 383.229 58.8864 383.617Z" fill="#F4940D"/>
</g>
<g opacity="0.3" clip-path="url(#clip8_6023_5874)">
<path fill-rule="evenodd" clip-rule="evenodd" d="M205.683 352.061L195.272 360.978L183.436 354.063L182.621 345.012C182.396 342.513 184.11 340.316 186.452 340.105C189.73 339.81 196.945 339.161 200.223 338.866C202.565 338.655 204.643 340.51 204.868 343.009L205.683 352.061Z" fill="white"/>
<path fill-rule="evenodd" clip-rule="evenodd" d="M200.749 335.396C203.463 335.151 205.818 336.666 206.008 338.775L207.9 359.788C208.089 361.897 206.043 363.808 203.328 364.053L198.407 364.496C197.395 364.587 196.5 364.017 196.43 363.231C196.358 362.434 195.484 361.869 194.458 361.961C193.432 362.054 192.672 362.766 192.744 363.563C192.815 364.348 192.037 365.069 191.026 365.16L186.109 365.603C183.395 365.847 181.035 364.332 180.845 362.224L178.954 341.21C178.764 339.102 180.815 337.19 183.53 336.946L188.446 336.503C189.458 336.412 190.352 336.983 190.422 337.769C190.494 338.566 191.369 339.13 192.395 339.037C193.421 338.945 194.18 338.234 194.108 337.437C194.037 336.651 194.816 335.93 195.827 335.839L200.749 335.396ZM186.128 345.136C185.883 345.158 185.654 345.255 185.493 345.405C185.159 345.717 185.2 346.17 185.585 346.418L200.059 355.708C200.444 355.955 201.027 355.903 201.362 355.591C201.699 355.279 201.658 354.823 201.271 354.576L186.8 345.288C186.615 345.168 186.373 345.114 186.128 345.136ZM197.213 344.381C195.523 344.533 194.237 345.733 194.355 347.046C194.474 348.359 195.953 349.309 197.643 349.157C199.334 349.005 200.622 347.806 200.504 346.493C200.386 345.18 198.904 344.228 197.213 344.381ZM189.208 351.842C188.393 351.915 187.634 352.237 187.097 352.737C186.561 353.237 186.292 353.873 186.349 354.507C186.377 354.82 186.485 355.124 186.665 355.4C186.846 355.675 187.096 355.918 187.401 356.114C187.707 356.31 188.062 356.456 188.445 356.542C188.829 356.629 189.235 356.654 189.638 356.618C190.042 356.582 190.436 356.484 190.798 356.33C191.161 356.177 191.484 355.97 191.749 355.723C192.015 355.476 192.218 355.192 192.346 354.888C192.474 354.585 192.526 354.267 192.498 353.953C192.441 353.32 192.062 352.742 191.445 352.346C190.828 351.95 190.024 351.769 189.208 351.842Z" fill="#F4940D"/>
</g>
<g opacity="0.3" clip-path="url(#clip9_6023_5874)">
<path fill-rule="evenodd" clip-rule="evenodd" d="M251.138 353.75L246.973 361.127L238.638 359.608L236.254 354.522C235.596 353.118 236.128 351.48 237.443 350.864C239.286 350 243.339 348.101 245.182 347.237C246.497 346.62 248.096 347.259 248.754 348.664L251.138 353.75Z" fill="white"/>
<path fill-rule="evenodd" clip-rule="evenodd" d="M244.756 345.111C246.281 344.396 247.969 344.779 248.524 345.964L254.058 357.771C254.613 358.956 253.828 360.498 252.303 361.213L249.537 362.509C248.969 362.775 248.329 362.633 248.122 362.192C247.912 361.744 247.285 361.6 246.709 361.87C246.132 362.14 245.841 362.714 246.051 363.162C246.258 363.604 245.958 364.186 245.39 364.453L242.628 365.748C241.102 366.462 239.412 366.081 238.856 364.896L233.323 353.089C232.767 351.904 233.555 350.36 235.081 349.646L237.843 348.351C238.412 348.084 239.051 348.227 239.258 348.669C239.468 349.117 240.095 349.26 240.672 348.99C241.248 348.719 241.539 348.146 241.329 347.698C241.122 347.257 241.422 346.673 241.99 346.407L244.756 345.111ZM238.318 353.855C238.181 353.919 238.069 354.024 238.007 354.145C237.879 354.397 237.998 354.652 238.273 354.714L248.642 357.056C248.918 357.118 249.246 356.964 249.374 356.713C249.504 356.46 249.384 356.204 249.107 356.142L238.741 353.801C238.608 353.771 238.456 353.79 238.318 353.855ZM244.599 351.076C243.649 351.521 243.155 352.49 243.501 353.228C243.847 353.966 244.907 354.205 245.856 353.76C246.806 353.315 247.302 352.346 246.956 351.609C246.61 350.871 245.548 350.631 244.599 351.076ZM241.523 357.1C241.065 357.315 240.692 357.662 240.486 358.066C240.28 358.469 240.258 358.896 240.425 359.252C240.507 359.428 240.634 359.581 240.797 359.703C240.96 359.826 241.157 359.914 241.375 359.963C241.594 360.013 241.831 360.022 242.072 359.991C242.313 359.961 242.554 359.89 242.781 359.784C243.008 359.677 243.216 359.537 243.394 359.372C243.572 359.206 243.716 359.018 243.818 358.818C243.92 358.618 243.978 358.411 243.989 358.207C243.999 358.004 243.962 357.808 243.88 357.632C243.713 357.276 243.371 357.02 242.929 356.921C242.487 356.821 241.982 356.885 241.523 357.1Z" fill="#F4940D"/>
</g>
<g opacity="0.3" clip-path="url(#clip10_6023_5874)">
<path fill-rule="evenodd" clip-rule="evenodd" d="M130.167 348.029L125.536 353.212L119.122 350.534L118.103 346.04C117.822 344.8 118.535 343.58 119.698 343.317C121.325 342.947 124.907 342.135 126.535 341.766C127.697 341.503 128.867 342.295 129.148 343.535L130.167 348.029Z" fill="white"/>
<path fill-rule="evenodd" clip-rule="evenodd" d="M126.566 339.987C127.913 339.681 129.199 340.284 129.436 341.331L131.802 351.763C132.039 352.81 131.14 353.909 129.792 354.214L127.349 354.768C126.846 354.882 126.358 354.656 126.27 354.266C126.18 353.87 125.703 353.645 125.194 353.761C124.684 353.876 124.35 354.285 124.44 354.681C124.528 355.071 124.186 355.485 123.684 355.599L121.243 356.153C119.895 356.458 118.608 355.856 118.37 354.809L116.004 344.377C115.767 343.33 116.669 342.231 118.017 341.926L120.458 341.372C120.96 341.258 121.448 341.485 121.536 341.875C121.626 342.271 122.103 342.495 122.613 342.38C123.122 342.264 123.456 341.856 123.366 341.46C123.277 341.07 123.62 340.655 124.122 340.541L126.566 339.987ZM119.874 345.866C119.752 345.894 119.644 345.958 119.573 346.045C119.427 346.224 119.478 346.449 119.687 346.547L127.587 350.241C127.797 350.339 128.087 350.274 128.234 350.094C128.382 349.915 128.331 349.689 128.12 349.591L120.222 345.898C120.121 345.85 119.996 345.839 119.874 345.866ZM125.394 344.74C124.555 344.931 123.99 345.62 124.137 346.272C124.285 346.924 125.093 347.302 125.932 347.111C126.771 346.921 127.338 346.232 127.19 345.58C127.042 344.928 126.233 344.55 125.394 344.74ZM121.874 349.029C121.469 349.121 121.109 349.334 120.873 349.621C120.637 349.908 120.545 350.246 120.616 350.561C120.652 350.716 120.726 350.862 120.835 350.988C120.945 351.115 121.087 351.22 121.254 351.298C121.42 351.376 121.608 351.425 121.807 351.442C122.006 351.46 122.211 351.446 122.412 351.4C122.612 351.355 122.804 351.279 122.975 351.177C123.147 351.076 123.295 350.95 123.412 350.808C123.529 350.666 123.612 350.51 123.656 350.349C123.7 350.187 123.704 350.024 123.669 349.868C123.598 349.554 123.369 349.289 123.032 349.131C122.695 348.974 122.279 348.937 121.874 349.029Z" fill="#F4940D"/>
</g>
<g filter="url(#filter0_dd_6023_5874)">
<g clip-path="url(#clip11_6023_5874)">
<rect x="1124.78" y="305" width="564" height="405.112" rx="8.41791" transform="rotate(20.9396 1124.78 305)" fill="url(#paint0_linear_6023_5874)" shape-rendering="crispEdges"/>
<rect width="564" height="31.5672" transform="translate(1124.78 305) rotate(20.9396)" fill="white"/>
<circle cx="1133.38" cy="324.254" r="7.01784" transform="rotate(20.9396 1133.38 324.254)" fill="#D3E2F0"/>
<circle cx="1152.32" cy="331.496" r="7.01784" transform="rotate(20.9396 1152.32 331.496)" fill="#D3E2F0"/>
<circle cx="1171.25" cy="338.742" r="7.01784" transform="rotate(20.9396 1171.25 338.742)" fill="#D3E2F0"/>
<mask id="path-39-inside-1_6023_5874" fill="white">
<path d="M1132.15 307.824L1245.17 351.07L1233.89 380.553L1120.87 337.307L1132.15 307.824Z"/>
</mask>
<path d="M1233.89 380.553L1234.08 380.061L1121.06 336.815L1120.87 337.307L1120.68 337.798L1233.7 381.044L1233.89 380.553Z" fill="#EEEEEE" mask="url(#path-39-inside-1_6023_5874)"/>
<mask id="path-41-inside-2_6023_5874" fill="white">
<path d="M1124.78 305L1252.54 353.887L1241.26 383.369L1113.5 334.482L1124.78 305Z"/>
</mask>
<path d="M1252.54 353.887L1252.05 353.699L1240.77 383.181L1241.26 383.369L1241.75 383.557L1253.03 354.075L1252.54 353.887Z" fill="#EEEEEE" mask="url(#path-41-inside-2_6023_5874)"/>
<g clip-path="url(#clip12_6023_5874)">
<rect x="1257.07" y="364.297" width="202.588" height="15.7451" rx="4.20896" transform="rotate(20.9396 1257.07 364.297)" fill="#D3E2F0"/>
</g>
<mask id="path-44-inside-3_6023_5874" fill="white">
<path d="M1259.91 356.711L1449.58 429.289L1438.3 458.772L1248.63 386.193L1259.91 356.711Z"/>
</mask>
<path d="M1438.3 458.772L1438.48 458.28L1248.81 385.702L1248.63 386.193L1248.44 386.685L1438.11 459.263L1438.3 458.772Z" fill="#EEEEEE" mask="url(#path-44-inside-3_6023_5874)"/>
<g clip-path="url(#clip13_6023_5874)">
<g clip-path="url(#clip14_6023_5874)">
<rect width="136.791" height="373.545" transform="translate(1113.5 334.48) rotate(20.9396)" fill="white"/>
<path d="M1121.02 352.695L1174.94 373.328" stroke="#D3E2F0" stroke-width="3.14903" stroke-linecap="round"/>
<circle cx="1116.84" cy="372.449" r="3.14903" transform="rotate(20.9396 1116.84 372.449)" fill="#D3E2F0"/>
<g clip-path="url(#clip15_6023_5874)">
<path d="M1127.62 376.582L1152.13 385.96" stroke="#D3E2F0" stroke-width="3.14903" stroke-linecap="round"/>
</g>
<rect x="1203.89" y="400.055" width="15.7836" height="11.5746" rx="5.78731" transform="rotate(20.9396 1203.89 400.055)" fill="#D3E2F0"/>
<circle cx="1110.82" cy="388.172" r="3.14903" transform="rotate(20.9396 1110.82 388.172)" fill="#D3E2F0"/>
<g clip-path="url(#clip16_6023_5874)">
<path d="M1121.6 392.309L1146.11 401.687" stroke="#D3E2F0" stroke-width="3.14903" stroke-linecap="round"/>
</g>
<rect x="1197.87" y="415.777" width="15.7836" height="11.5746" rx="5.78731" transform="rotate(20.9396 1197.87 415.777)" fill="#D3E2F0"/>
<circle cx="1104.8" cy="403.902" r="3.14903" transform="rotate(20.9396 1104.8 403.902)" fill="#D3E2F0"/>
<g clip-path="url(#clip17_6023_5874)">
<path d="M1115.59 408.02L1140.1 417.398" stroke="#D3E2F0" stroke-width="3.14903" stroke-linecap="round"/>
</g>
<rect x="1191.86" y="431.504" width="15.7836" height="11.5746" rx="5.78731" transform="rotate(20.9396 1191.86 431.504)" fill="#D3E2F0"/>
<circle cx="1092.76" cy="435.352" r="3.14903" transform="rotate(20.9396 1092.76 435.352)" fill="#D3E2F0"/>
<g clip-path="url(#clip18_6023_5874)">
<path d="M1103.55 439.48L1128.06 448.859" stroke="#D3E2F0" stroke-width="3.14903" stroke-linecap="round"/>
</g>
<rect x="1179.82" y="462.949" width="15.7836" height="11.5746" rx="5.78731" transform="rotate(20.9396 1179.82 462.949)" fill="#D3E2F0"/>
<circle cx="1098.78" cy="419.625" r="3.14903" transform="rotate(20.9396 1098.78 419.625)" fill="#D3E2F0"/>
<g clip-path="url(#clip19_6023_5874)">
<path d="M1109.57 423.754L1134.08 433.132" stroke="#D3E2F0" stroke-width="3.14903" stroke-linecap="round"/>
</g>
<rect x="1185.84" y="447.223" width="15.7836" height="11.5746" rx="5.78731" transform="rotate(20.9396 1185.84 447.223)" fill="#D3E2F0"/>
<mask id="path-67-inside-4_6023_5874" fill="white">
<path d="M1113.5 334.48L1241.26 383.367L1064.51 845.258L936.755 796.371L1113.5 334.48Z"/>
</mask>
<path d="M1241.26 383.367L1240.77 383.179L1064.02 845.07L1064.51 845.258L1065 845.446L1241.75 383.555L1241.26 383.367Z" fill="#EEEEEE" mask="url(#path-67-inside-4_6023_5874)"/>
</g>
</g>
</g>
</g>
<g opacity="0.75" filter="url(#filter1_d_6023_5874)">
<path d="M59.3938 438.858C55.8626 421.488 67.0815 404.544 84.4519 401.012L264.586 364.394C281.956 360.862 298.9 372.081 302.431 389.452L390.416 822.263L147.379 871.669L59.3938 438.858Z" fill="white"/>
<path d="M84.8508 402.972L264.984 366.354C281.272 363.042 297.161 373.563 300.472 389.851L388.058 820.701L148.94 869.311L61.3538 438.46C58.0944 422.427 68.2369 406.78 84.091 403.137L84.8508 402.972Z" stroke="#1A314E" stroke-opacity="0.8" stroke-width="4"/>
<path d="M78.7578 426.096C79.9643 425.85 81.1885 426.495 81.6026 428.532L81.6042 428.539C81.9912 430.443 81.3627 431.746 79.9407 432.035C78.9027 432.246 78.002 431.789 77.6458 430.96L77.6293 430.918L78.6242 430.716L78.6439 430.753C78.8732 431.118 79.2744 431.306 79.7719 431.204C80.669 431.022 80.8705 430.067 80.6939 428.977C80.6851 428.934 80.6803 428.89 80.6715 428.847L80.5931 428.863C80.4763 429.352 80.0632 429.848 79.2876 430.006C78.2025 430.226 77.2817 429.59 77.0635 428.516L77.0619 428.508C76.8286 427.361 77.5317 426.345 78.7578 426.096ZM79.3806 429.179C80.0191 429.049 80.4148 428.488 80.285 427.849L80.2834 427.841C80.152 427.195 79.5596 426.789 78.9329 426.917C78.31 427.043 77.9137 427.642 78.0419 428.272L78.0435 428.28C78.1765 428.934 78.7382 429.31 79.3806 429.179ZM83.0653 427.439C82.7088 427.511 82.3867 427.291 82.3166 426.947C82.2458 426.598 82.4572 426.274 82.8137 426.201C83.1741 426.128 83.4915 426.345 83.5623 426.693C83.6324 427.038 83.4257 427.366 83.0653 427.439ZM83.6562 430.345C83.2997 430.418 82.9784 430.202 82.9075 429.853C82.8366 429.505 83.0481 429.18 83.4045 429.108C83.7649 429.034 84.0823 429.251 84.1532 429.6C84.2241 429.949 84.0166 430.272 83.6562 430.345ZM88.1699 430.215L87.9493 429.13L85.1838 429.692L85.0157 428.866C85.4894 427.444 86.0281 425.98 86.5586 424.657L87.9884 424.366L88.7473 428.099L89.5072 427.945L89.6768 428.779L88.9169 428.933L89.1375 430.018L88.1699 430.215ZM85.9591 428.69L87.8002 428.316L87.2005 425.366L87.1418 425.378C86.742 426.381 86.3004 427.56 85.9471 428.632L85.9591 428.69ZM92.0795 429.42L91.1326 424.763L91.066 424.776L89.862 426.057L89.6685 425.105L90.9343 423.767L91.941 423.562L93.0901 429.215L92.0795 429.42Z" fill="black"/>
<rect x="134.547" y="407.262" width="80.2381" height="21.8831" rx="10.9416" transform="rotate(-11.4909 134.547 407.262)" fill="#485A71"/>
<path d="M251.595 392.805C251.539 392.528 251.718 392.258 251.995 392.202L252.496 392.1C252.773 392.044 253.043 392.223 253.099 392.499L253.915 396.511C253.971 396.788 253.792 397.058 253.515 397.114L253.014 397.216C252.737 397.272 252.467 397.093 252.411 396.816L251.595 392.805Z" fill="black"/>
<path d="M253.898 391.293C253.842 391.016 254.021 390.746 254.298 390.689L254.799 390.588C255.076 390.531 255.346 390.71 255.403 390.987L256.422 396.001C256.478 396.278 256.299 396.548 256.022 396.604L255.521 396.706C255.244 396.763 254.974 396.584 254.918 396.307L253.898 391.293Z" fill="black"/>
<path d="M249.445 395.07C249.389 394.793 249.568 394.523 249.844 394.466L250.346 394.365C250.623 394.308 250.893 394.487 250.949 394.764L251.408 397.02C251.464 397.297 251.285 397.567 251.008 397.624L250.507 397.726C250.23 397.782 249.96 397.603 249.904 397.326L249.445 395.07Z" fill="black"/>
<path d="M247.193 396.833C247.136 396.556 247.315 396.286 247.592 396.23L248.094 396.128C248.371 396.071 248.641 396.25 248.697 396.527L248.901 397.53C248.957 397.807 248.778 398.077 248.501 398.133L248 398.235C247.723 398.292 247.453 398.113 247.397 397.836L247.193 396.833Z" fill="black"/>
<path d="M263.29 393.513C263.877 392.753 264.92 392.541 265.757 393.011C265.8 393.037 265.83 393.08 265.841 393.129C265.852 393.178 265.842 393.229 265.815 393.27L264.934 394.646C264.908 394.686 264.867 394.714 264.821 394.723C264.774 394.733 264.726 394.723 264.687 394.696L263.338 393.774C263.297 393.746 263.268 393.703 263.259 393.654C263.25 393.604 263.261 393.553 263.29 393.513ZM261.502 392.451C262.74 390.684 265.115 390.201 266.944 391.345C266.986 391.372 267.016 391.415 267.026 391.464C267.037 391.513 267.027 391.565 267 391.606L266.491 392.402C266.439 392.483 266.332 392.507 266.25 392.455C265.652 392.091 264.944 391.967 264.265 392.105C263.586 392.243 262.983 392.634 262.574 393.202C262.52 393.282 262.411 393.302 262.331 393.247L261.552 392.714C261.511 392.686 261.483 392.643 261.473 392.594C261.463 392.544 261.474 392.492 261.502 392.451ZM259.717 391.387C261.602 388.607 265.313 387.853 268.134 389.676C268.174 389.703 268.203 389.746 268.214 389.794C268.224 389.843 268.214 389.894 268.187 389.935L267.678 390.731C267.625 390.813 267.517 390.836 267.436 390.782C266.363 390.095 265.074 389.851 263.838 390.103C262.601 390.354 261.51 391.081 260.791 392.133C260.737 392.214 260.628 392.235 260.548 392.181L259.768 391.647C259.727 391.619 259.699 391.576 259.69 391.527C259.68 391.478 259.69 391.428 259.717 391.387Z" fill="black"/>
<path opacity="0.35" d="M273.789 386.394L282.494 384.624C283.463 384.427 284.409 385.053 284.606 386.023L285.115 388.529C285.312 389.498 284.686 390.444 283.717 390.641L275.012 392.41C274.043 392.607 273.097 391.981 272.9 391.012L272.391 388.506C272.194 387.536 272.82 386.591 273.789 386.394Z" stroke="black" stroke-width="0.511662"/>
<path opacity="0.4" d="M285.459 386.371L285.889 388.487C286.278 388.221 286.471 387.748 286.377 387.286C286.283 386.824 285.921 386.464 285.459 386.371" fill="black"/>
<path d="M273.143 388.354C273.031 387.801 273.388 387.26 273.942 387.148L282.648 385.378C283.201 385.265 283.742 385.623 283.854 386.177L284.364 388.684C284.476 389.238 284.119 389.778 283.565 389.891L274.86 391.66C274.306 391.773 273.766 391.415 273.653 390.861L273.143 388.354Z" fill="black"/>
<rect x="83.2051" y="470.078" width="179.32" height="107.356" rx="23.5948" transform="rotate(-11.4909 83.2051 470.078)" fill="#ECF6FF"/>
<path d="M118.369 542.379L193.517 527.102" stroke="#B9B9B9" stroke-width="5.89869" stroke-linecap="round"/>
<path d="M113.668 519.258L250.087 491.526" stroke="#B9B9B9" stroke-width="5.89869" stroke-linecap="round"/>
<path d="M108.969 496.141L245.388 468.408" stroke="#B9B9B9" stroke-width="5.89869" stroke-linecap="round"/>
<rect x="143.738" y="590.191" width="179.32" height="176.961" rx="23.5948" transform="rotate(-11.4909 143.738 590.191)" fill="#ECF6FF"/>
<path d="M168.205 609.906L304.624 582.174" stroke="#B9B9B9" stroke-width="5.89869" stroke-linecap="round"/>
<path d="M191.707 725.512L266.855 710.235" stroke="#B9B9B9" stroke-width="5.89869" stroke-linecap="round"/>
<path d="M187.006 702.383L323.425 674.651" stroke="#B9B9B9" stroke-width="5.89869" stroke-linecap="round"/>
<path d="M182.307 679.266L318.725 651.533" stroke="#B9B9B9" stroke-width="5.89869" stroke-linecap="round"/>
<path d="M177.605 656.141L314.024 628.408" stroke="#B9B9B9" stroke-width="5.89869" stroke-linecap="round"/>
<path d="M172.904 633.02L309.323 605.287" stroke="#B9B9B9" stroke-width="5.89869" stroke-linecap="round"/>
</g>
</g>
<defs>
<filter id="filter0_dd_6023_5874" x="948.433" y="283.955" width="734.668" height="643.056" filterUnits="userSpaceOnUse" color-interpolation-filters="sRGB">
<feFlood flood-opacity="0" result="BackgroundImageFix"/>
<feColorMatrix in="SourceAlpha" type="matrix" values="0 0 0 0 0 0 0 0 0 0 0 0 0 0 0 0 0 0 127 0" result="hardAlpha"/>
<feOffset dy="10.5224"/>
<feGaussianBlur stdDeviation="15.7836"/>
<feComposite in2="hardAlpha" operator="out"/>
<feColorMatrix type="matrix" values="0 0 0 0 0 0 0 0 0 0 0 0 0 0 0 0 0 0 0.15 0"/>
<feBlend mode="normal" in2="BackgroundImageFix" result="effect1_dropShadow_6023_5874"/>
<feColorMatrix in="SourceAlpha" type="matrix" values="0 0 0 0 0 0 0 0 0 0 0 0 0 0 0 0 0 0 127 0" result="hardAlpha"/>
<feMorphology radius="0.26306" operator="dilate" in="SourceAlpha" result="effect2_dropShadow_6023_5874"/>
<feOffset/>
<feComposite in2="hardAlpha" operator="out"/>
<feColorMatrix type="matrix" values="0 0 0 0 0 0 0 0 0 0 0 0 0 0 0 0 0 0 0.1 0"/>
<feBlend mode="normal" in2="effect1_dropShadow_6023_5874" result="effect2_dropShadow_6023_5874"/>
<feBlend mode="normal" in="SourceGraphic" in2="effect2_dropShadow_6023_5874" result="shape"/>
</filter>
<filter id="filter1_d_6023_5874" x="46.1" y="356.1" width="361.216" height="537.468" filterUnits="userSpaceOnUse" color-interpolation-filters="sRGB">
<feFlood flood-opacity="0" result="BackgroundImageFix"/>
<feColorMatrix in="SourceAlpha" type="matrix" values="0 0 0 0 0 0 0 0 0 0 0 0 0 0 0 0 0 0 127 0" result="hardAlpha"/>
<feOffset dx="5" dy="10"/>
<feGaussianBlur stdDeviation="5.95"/>
<feComposite in2="hardAlpha" operator="out"/>
<feColorMatrix type="matrix" values="0 0 0 0 0 0 0 0 0 0 0 0 0 0 0 0 0 0 0.35 0"/>
<feBlend mode="normal" in2="BackgroundImageFix" result="effect1_dropShadow_6023_5874"/>
<feBlend mode="normal" in="SourceGraphic" in2="effect1_dropShadow_6023_5874" result="shape"/>
</filter>
<linearGradient id="paint0_linear_6023_5874" x1="1406.78" y1="305" x2="1406.78" y2="710.112" gradientUnits="userSpaceOnUse">
<stop stop-color="white"/>
<stop offset="1" stop-color="white" stop-opacity="0.95"/>
</linearGradient>
<clipPath id="clip0_6023_5874">
<rect width="1440" height="764" fill="white"/>
</clipPath>
<clipPath id="clip1_6023_5874">
<rect width="88" height="82" fill="white" transform="matrix(-0.91525 0.402886 0.402886 0.91525 299.141 66.3828)"/>
</clipPath>
<clipPath id="clip2_6023_5874">
<rect width="38.261" height="35.6523" fill="white" transform="matrix(-0.957716 0.287715 0.287715 0.957716 183.432 16.0781)"/>
</clipPath>
<clipPath id="clip3_6023_5874">
<rect width="38.261" height="35.6523" fill="white" transform="matrix(-0.985808 0.167877 0.167877 0.985808 335.826 15)"/>
</clipPath>
<clipPath id="clip4_6023_5874">
<rect width="38.261" height="35.6523" fill="white" transform="matrix(-0.908215 0.418505 0.418505 0.908215 191.467 105.637)"/>
</clipPath>
<clipPath id="clip5_6023_5874">
<rect width="38.261" height="35.6523" fill="white" transform="matrix(-0.908215 0.418505 0.418505 0.908215 301.467 215.637)"/>
</clipPath>
<clipPath id="clip6_6023_5874">
<rect width="82" height="82" fill="white" transform="matrix(-0.975239 0.221154 0.221154 0.975239 166.254 233.637)"/>
</clipPath>
<clipPath id="clip7_6023_5874">
<rect width="31.0445" height="31.0445" fill="white" transform="matrix(-0.880647 0.473774 0.473774 0.880647 68.6797 359.637)"/>
</clipPath>
<clipPath id="clip8_6023_5874">
<rect width="31.0445" height="31.0445" fill="white" transform="matrix(-0.995973 0.0896519 0.0896519 0.995973 207.637 333.637)"/>
</clipPath>
<clipPath id="clip9_6023_5874">
<rect width="19.1868" height="19.1868" fill="white" transform="matrix(-0.905478 0.424393 0.424393 0.905478 248.385 342.637)"/>
</clipPath>
<clipPath id="clip10_6023_5874">
<rect width="15.7402" height="15.7402" fill="white" transform="matrix(-0.975239 0.221154 0.221154 0.975239 129.908 338.637)"/>
</clipPath>
<clipPath id="clip11_6023_5874">
<rect x="1124.78" y="305" width="564" height="405.112" rx="8.41791" transform="rotate(20.9396 1124.78 305)" fill="white"/>
</clipPath>
<clipPath id="clip12_6023_5874">
<rect x="1257.07" y="364.297" width="202.588" height="15.7451" rx="4.20896" transform="rotate(20.9396 1257.07 364.297)" fill="white"/>
</clipPath>
<clipPath id="clip13_6023_5874">
<rect width="564" height="373.545" fill="white" transform="translate(1113.5 334.48) rotate(20.9396)"/>
</clipPath>
<clipPath id="clip14_6023_5874">
<rect width="136.791" height="373.545" fill="white" transform="translate(1113.5 334.48) rotate(20.9396)"/>
</clipPath>
<clipPath id="clip15_6023_5874">
<rect width="76.6264" height="8.39741" fill="white" transform="translate(1127.16 371.906) rotate(20.9396)"/>
</clipPath>
<clipPath id="clip16_6023_5874">
<rect width="76.6264" height="8.39741" fill="white" transform="translate(1121.14 387.629) rotate(20.9396)"/>
</clipPath>
<clipPath id="clip17_6023_5874">
<rect width="76.6264" height="8.39741" fill="white" transform="translate(1115.12 403.355) rotate(20.9396)"/>
</clipPath>
<clipPath id="clip18_6023_5874">
<rect width="76.6264" height="8.39741" fill="white" transform="translate(1103.09 434.801) rotate(20.9396)"/>
</clipPath>
<clipPath id="clip19_6023_5874">
<rect width="76.6264" height="8.39741" fill="white" transform="translate(1109.11 419.082) rotate(20.9396)"/>
</clipPath>
</defs>
</svg>
